<?xml version="1.0" encoding="UTF-8" standalone="no"?>
<svg
   xmlns:dc="http://purl.org/dc/elements/1.1/"
   xmlns:cc="http://creativecommons.org/ns#"
   xmlns:rdf="http://www.w3.org/1999/02/22-rdf-syntax-ns#"
   xmlns:svg="http://www.w3.org/2000/svg"
   xmlns="http://www.w3.org/2000/svg"
   xmlns:sodipodi="http://sodipodi.sourceforge.net/DTD/sodipodi-0.dtd"
   xmlns:inkscape="http://www.inkscape.org/namespaces/inkscape"
   inkscape:version="1.0 (4035a4fb49, 2020-05-01)"
   sodipodi:docname="interactive.svg"
   version="1.1"
   viewBox="0 0 890.30174 489.29978"
   height="489.29978"
   width="890.30174"
   data-name="Layer 1"
   id="b66c9c51-8109-402d-a3f9-100a5bb3d153">
  <metadata
     id="metadata155">
    <rdf:RDF>
      <cc:Work
         rdf:about="">
        <dc:format>image/svg+xml</dc:format>
        <dc:type
           rdf:resource="http://purl.org/dc/dcmitype/StillImage" />
      </cc:Work>
    </rdf:RDF>
  </metadata>
  <defs
     id="defs153" />
  <sodipodi:namedview
     inkscape:bbox-paths="true"
     inkscape:snap-bbox-edge-midpoints="true"
     inkscape:bbox-nodes="true"
     inkscape:snap-bbox-midpoints="true"
     inkscape:object-paths="true"
     inkscape:snap-intersection-paths="true"
     inkscape:snap-smooth-nodes="true"
     inkscape:snap-midpoints="true"
     inkscape:snap-page="true"
     inkscape:snap-text-baseline="true"
     inkscape:snap-center="true"
     inkscape:snap-object-midpoints="true"
     inkscape:snap-bbox="true"
     inkscape:current-layer="b66c9c51-8109-402d-a3f9-100a5bb3d153"
     inkscape:cy="304.11756"
     inkscape:cx="592.48408"
     inkscape:zoom="1.2366594"
     showgrid="false"
     id="namedview151"
     inkscape:window-height="480"
     inkscape:window-width="640"
     inkscape:pageshadow="2"
     inkscape:pageopacity="0"
     guidetolerance="10"
     gridtolerance="10"
     objecttolerance="10"
     borderopacity="1"
     bordercolor="#666666"
     pagecolor="#ffffff" />
  <title
     id="title2">work_together</title>
  <path
     style="stroke-width:0.866052"
     d="m 890.30176,419.14953 a 11.856099,11.856099 0 0 1 -0.14714,1.83603 c -6.18379,37.89845 -203.05471,68.31421 -445.00374,68.31421 -241.94903,0 -438.8200341,-30.41576 -445.00364755,-68.31421 A 11.843343,11.843343 0 0 1 3.187503e-6,419.14953 c 0,-0.17321 0,-0.35508 0.017323402497,-0.5283 0,-0.0953 0.0086979,-0.18187 0.0086979,-0.27713 a 0.42388063,0.42388063 0 0 0 0.0086979,-0.10393 C 0.0693692,417.85045 0.12132905,417.47804 0.19061232,417.09698 3.0139431,401.60331 37.733979,387.36541 94.36513,375.9595 c 46.31648,-9.32738 107.29522,-16.76677 177.4801,-21.44346 53.26222,-3.55081 111.82467,-5.51675 173.30572,-5.51675 49.46891,0 97.04982,1.2731 141.49562,3.61144 h 0.0173 q 13.95211,0.74047 27.48852,1.61952 c 61.77549,4.00116 116.59661,10.12415 160.76528,17.78872 27.16806,4.71998 50.31764,10.02888 68.5826,15.77946 h 0.008 c 28.11206,8.85972 44.68839,18.79334 46.60236,29.29855 0.0693,0.38106 0.12116,0.75347 0.15581,1.14319 a 0.42141238,0.42141238 0 0 0 0.008,0.10393 c 0,0.0953 0.008,0.18187 0.008,0.27713 0.0173,0.1732 0.0173,0.35508 0.0173,0.5283 z"
     fill="#3f3d56"
     id="path6" />
  <ellipse
     style="stroke-width:0.359834"
     cx="720.06409"
     cy="447.32999"
     rx="59.372692"
     ry="8.6360273"
     opacity="0.1"
     id="ellipse8-2" />
  <ellipse
     style="stroke-width:0.365265"
     cx="323.63022"
     cy="453.80942"
     rx="60.268665"
     ry="8.7663517"
     opacity="0.1"
     id="ellipse8" />
  <rect
     style="stroke-width:0.875"
     id="rect4"
     fill="#e6e6e6"
     height="394.276"
     width="615.62866"
     y="32.694206"
     x="137.6196" />
  <rect
     style="stroke-width:0.875"
     id="rect6"
     fill="#ffffff"
     height="228.375"
     width="222.25"
     y="85.639023"
     x="192.05734" />
  <rect
     style="stroke-width:0.875"
     id="rect8"
     fill="#ffffff"
     height="277.375"
     width="222.25"
     y="90.067856"
     x="497.43234" />
  <rect
     style="stroke-width:0.875"
     y="32.345203"
     id="rect16"
     fill="#804dde"
     height="26.154161"
     width="615.62866"
     x="137.35674" />
  <circle
     style="stroke-width:0.875"
     id="circle18"
     fill="#e6e6e6"
     r="4.8474736"
     cy="45.716595"
     cx="156.7924" />
  <circle
     style="stroke-width:0.875"
     id="circle20"
     fill="#e6e6e6"
     r="4.8474736"
     cy="45.716595"
     cx="175.1922" />
  <circle
     style="stroke-width:0.875"
     id="circle22"
     fill="#e6e6e6"
     r="4.8474736"
     cy="45.716595"
     cx="193.59198" />
  <path
     style="stroke-width:0.875"
     id="path24"
     fill="#3f3d56"
     d="m 670.68234,164.46905 h -1.34631 V 127.58731 A 21.34615,21.34615 0 0 0 647.98982,106.24113 H 569.85091 A 21.34615,21.34615 0 0 0 548.5047,127.58731 V 329.9234 a 21.34615,21.34615 0 0 0 21.34621,21.34618 h 78.13891 A 21.34615,21.34615 0 0 0 669.33603,329.9234 V 190.72209 h 1.34631 z" />
  <path
     style="stroke-width:0.875"
     id="path26"
     fill="#ffffff"
     d="m 647.97615,111.79467 h -10.19972 a 7.5735625,7.5735625 0 0 1 -7.01208,10.4339 h -44.76482 a 7.57358,7.57358 0 0 1 -7.01206,-10.4339 h -9.52658 a 15.941065,15.941065 0 0 0 -15.94109,15.94105 v 202.03925 a 15.941065,15.941065 0 0 0 15.94109,15.94106 h 78.51526 a 15.941074,15.941074 0 0 0 15.94109,-15.94106 V 127.73572 a 15.941074,15.941074 0 0 0 -15.94109,-15.94105 z" />
  <rect
     style="stroke-width:0.875"
     id="rect28"
     fill="#e6e6e6"
     height="7.0460858"
     width="154.47635"
     y="229.89886"
     x="226.09767" />
  <rect
     style="stroke-width:0.875"
     id="rect30"
     fill="#804dde"
     height="7.0460858"
     width="154.47635"
     y="252.64886"
     x="226.09767" />
  <rect
     style="stroke-width:0.875"
     id="rect32"
     fill="#e6e6e6"
     height="7.0460858"
     width="154.47635"
     y="275.39886"
     x="226.09767" />
  <rect
     style="stroke-width:0.875"
     id="rect34"
     fill="#e6e6e6"
     height="7.0460858"
     width="90.180786"
     y="245.27257"
     x="564.50317" />
  <rect
     style="stroke-width:0.875"
     id="rect36"
     fill="#e6e6e6"
     height="7.0460858"
     width="90.180786"
     y="267.14755"
     x="564.50317" />
  <rect
     style="stroke-width:0.875"
     id="rect38"
     fill="#e6e6e6"
     height="7.0460858"
     width="90.180786"
     y="289.02255"
     x="564.50317" />
  <rect
     style="stroke-width:0.875"
     id="rect40"
     fill="#3f3d56"
     transform="rotate(90)"
     height="15.030128"
     width="15.030128"
     y="-664.11273"
     x="383.40683" />
  <rect
     style="stroke-width:0.875"
     id="rect42"
     fill="#804dde"
     transform="rotate(90)"
     height="15.030128"
     width="15.030128"
     y="-639.89752"
     x="383.40686" />
  <rect
     style="stroke-width:0.875"
     id="rect44"
     fill="#3f3d56"
     transform="rotate(90)"
     height="15.030128"
     width="15.030128"
     y="-615.68231"
     x="383.40683" />
  <rect
     style="stroke-width:0.875"
     id="rect46"
     fill="#3f3d56"
     transform="rotate(90)"
     height="15.030128"
     width="15.030128"
     y="-591.4671"
     x="383.40686" />
  <rect
     style="stroke-width:0.875"
     id="rect48"
     fill="#3f3d56"
     transform="rotate(90)"
     height="15.030128"
     width="15.030128"
     y="-567.25189"
     x="383.40683" />
  <rect
     style="stroke-width:0.875"
     id="rect50"
     fill="#804dde"
     height="50.100437"
     width="50.100437"
     y="153.96172"
     x="583.66827" />
  <path
     style="stroke-width:0.875"
     id="path52"
     fill="#a0616a"
     d="m 283.42333,273.48898 -0.64849,1.29699 -1.94548,-9.72738 c 0,0 -2.59397,-10.37588 2.59397,-10.37588 5.18795,0 3.89095,10.37588 3.89095,10.37588 v 7.13342 z" />
  <path
     style="stroke-width:0.875"
     id="path54"
     fill="#a0616a"
     d="m 368.50932,272.16094 0.64849,1.29699 1.94549,-9.72738 c 0,0 2.59397,-10.37588 -2.59398,-10.37588 -5.18794,0 -3.89096,10.37588 -3.89096,10.37588 v 7.13343 z" />
  <polygon
     transform="matrix(0.875,0,0,0.875,-22.481293,32.345205)"
     id="polygon56"
     fill="#2f2e41"
     points="377.768,467.145 388.144,462.699 386.662,422.677 397.038,390.808 399.261,428.606 394.815,467.886 408.155,469.369 417.79,388.585 417.049,361.163 382.215,358.94 373.322,413.784 " />
  <path
     style="stroke-width:0.875"
     id="path58"
     fill="#2f2e41"
     d="m 311.95701,435.26096 -4.53944,7.13342 v 15.93923 a 1.932875,1.932875 0 0 0 1.6243,1.90789 c 2.22495,0.36506 6.09908,0.62444 7.4546,-1.63477 1.94547,-3.24246 0.64849,-10.37589 0.64849,-10.37589 0,0 2.59397,-5.18794 1.29698,-9.07889 -1.29698,-3.89096 -2.59397,-4.53945 -2.59397,-4.53945 z" />
  <path
     style="stroke-width:0.875"
     id="path60"
     fill="#2f2e41"
     d="m 331.41181,441.74589 1.29698,1.94548 c 0,0 1.94548,1.94548 0.64849,3.24247 a 25.344944,25.344944 0 0 0 -2.59397,3.24246 c 0,0 -7.13342,1.94547 -7.13342,-0.6485 v -8.43041 z" />
  <circle
     style="stroke-width:0.875"
     id="circle62"
     fill="#a0616a"
     r="8.5962362"
     cy="285.04089"
     cx="329.07468" />
  <polygon
     transform="matrix(0.875,0,0,0.875,-22.481293,32.345205)"
     id="polygon64"
     fill="#a0616a"
     points="407.784,306.69 407.043,292.608 395.185,291.867 394.444,305.949 " />
  <path
     style="stroke-width:0.875"
     id="path66"
     fill="#575a89"
     d="m 335.95125,301.02293 -1.84086,-4.49712 c 0,0 -8.53503,-3.2848 -11.12899,-0.0423 l -1.29699,3.89096 -10.37589,-2.59398 -5.83643,12.96987 5.18795,36.96409 c 0,0 13.61834,17.50931 31.77615,0.64849 l 5.18794,-35.01861 -3.89091,-13.61835 z" />
  <polygon
     transform="matrix(0.875,0,0,0.875,-22.481293,32.345205)"
     id="polygon68"
     fill="#575a89"
     points="433.354,296.684 442.4,269.907 449.4,272.907 441.506,304.837 420.013,324.847 417.049,308.543 418.531,305.578 " />
  <polygon
     transform="matrix(0.875,0,0,0.875,-22.481293,32.345205)"
     id="polygon70"
     fill="#575a89"
     points="365.91,293.72 354.793,271.486 345.9,274.45 355.534,301.872 379.251,321.142 382.956,304.837 381.474,303.355 " />
  <path
     style="stroke-width:0.875"
     id="path72"
     fill="#2f2e41"
     d="m 335.45477,271.87677 1.4055,-0.70276 -2.10825,-0.70274 v -0.70279 c 0,0 -10.54125,-4.2165 -11.94675,2.811 a 14.125379,14.125379 0 0 0 0,16.86601 v 2.10824 l 11.24401,1.40551 1.40549,-4.2165 c 0,0 7.02751,-12.64947 0,-16.86597 z" />
  <rect
     style="stroke-width:0.875"
     id="rect106"
     fill="#e6e6e6"
     height="88.375"
     width="154"
     y="111.88902"
     x="226.18234" />
  <path
     style="stroke-width:0.875"
     id="path108"
     fill="#ffb8b8"
     d="m 684.6956,287.17456 0.71355,-4.60239 c 0,0 4.15897,-9.45452 0.87155,-9.9642 -3.28742,-0.50968 -6.02948,8.49123 -6.02948,8.49123 l 1.20283,9.61252 z" />
  <polygon
     transform="matrix(0.875,0,0,0.875,-22.481293,32.345205)"
     id="polygon110"
     fill="#575a89"
     points="809.187,289.847 799.302,289.084 799.785,320.707 828.962,336.004 846.67,321.051 813.089,314.306 " />
  <polygon
     transform="matrix(0.875,0,0,0.875,-22.481293,32.345205)"
     id="polygon112"
     opacity="0.2"
     points="809.187,289.847 799.302,289.084 799.785,320.707 828.962,336.004 846.67,321.051 813.089,314.306 " />
  <rect
     style="stroke-width:0.875"
     id="rect114"
     fill="#804dde"
     transform="scale(-1)"
     height="7.0460858"
     width="90.180786"
     y="-281.51401"
     x="-728.59857" />
  <path
     style="stroke-width:0.875"
     id="path116"
     fill="#ffb8b8"
     d="m 678.95476,285.59674 0.006,-4.65737 c 0,0 2.67389,-9.97675 -0.6528,-9.98091 -3.32669,-0.004 -4.66907,9.30889 -4.66907,9.30889 l 2.64965,9.31808 z" />
  <path
     style="stroke-width:0.875"
     id="path118"
     fill="#2f2e41"
     d="m 717.20273,298.93564 4.03153,-0.98272 a 10.378979,10.378979 0 0 0 10.18642,-12.43452 v 0 a 13.56614,13.56614 0 0 0 -13.54909,-13.58318 v 0 a 13.566149,13.566149 0 0 0 -13.58325,13.54909 v 0 a 10.780569,10.780569 0 0 0 12.91439,13.45133 z" />
  <polygon
     transform="matrix(0.875,0,0,0.875,-22.481293,32.345205)"
     id="polygon120"
     fill="#2f2e41"
     points="828.797,462.833 840.203,462.847 838.732,423.305 832.709,375.393 818.254,381.458 822.005,422.524 " />
  <path
     style="stroke-width:0.875"
     id="path122"
     fill="#2f2e41"
     d="m 704.0496,435.32967 -6.6584,3.98368 c 0,0 -10.64709,1.3173 -8.65525,4.6465 1.99184,3.3292 25.28119,1.36244 25.28286,0.0318 0.002,-1.33068 -0.6545,-8.65025 -1.98514,-8.6519 z" />
  <path
     style="stroke-width:0.875"
     id="path124"
     fill="#2f2e41"
     d="m 722.95068,363.0168 c 0,0 -0.18719,5.13708 -4.85459,13.11529 l 0.63442,24.61836 23.91375,30.63566 -8.65859,7.30786 -29.23311,-33.3037 -7.26863,-39.9295 9.32644,-9.30305 z" />
  <path
     style="stroke-width:0.875"
     id="path126"
     fill="#2f2e41"
     d="m 740.64823,431.38361 c 0,0 7.9824,1.34071 6.64754,4.66573 -1.33485,3.32501 -4.68077,18.62363 -13.32766,16.61674 0,0 -3.99203,-0.005 -2.65802,-2.66469 a 48.12885,48.12885 0 0 1 2.66721,-4.65402 l 0.0109,-8.64938 z" />
  <circle
     style="stroke-width:0.875"
     id="circle128"
     fill="#ffb8b8"
     r="9.9800844"
     cy="289.63138"
     cx="712.88202" />
  <polygon
     transform="matrix(0.875,0,0,0.875,-22.481293,32.345205)"
     id="polygon130"
     fill="#ffb8b8"
     points="833.546,314.563 835.083,301.639 845.728,301.652 845.712,314.578 " />
  <path
     style="stroke-width:0.875"
     id="path132"
     fill="#575a89"
     d="m 704.21507,303.59264 3.2257,-0.7924 10.08107,0.80911 c 0,0 5.31602,5.3294 4.64902,6.65923 -0.66701,1.32984 -4.03463,33.92725 -4.03463,33.92725 l 5.9588,23.29437 -21.2925,1.30393 -10.64374,-1.34404 2.04866,-41.91382 c 0,0 -4.64316,-11.31661 1.34906,-14.63578 a 26.210004,26.210004 0 0 0 8.65856,-7.30785 z" />
  <polygon
     transform="matrix(0.875,0,0,0.875,-22.481293,32.345205)"
     id="polygon134"
     fill="#575a89"
     points="802.404,287.911 792.518,288.658 797.801,319.841 828.964,330.526 844.193,313.056 809.978,311.492 " />
  <circle
     style="stroke-width:0.875"
     id="circle136"
     fill="#2f2e41"
     r="6.4389763"
     cy="275.83963"
     cx="732.14709" />
  <path
     style="stroke-width:0.875"
     id="path138"
     fill="#2f2e41"
     d="m 726.20594,272.37823 a 6.43594,6.43594 0 0 1 7.70612,-6.30432 6.435975,6.435975 0 1 0 -4.01422,12.12957 6.4336738,6.4336738 0 0 1 -3.6919,-5.82525 z" />
  <path
     style="stroke-width:0.875"
     id="path140"
     fill="#2f2e41"
     d="m 720.68201,276.02998 -8.68069,-1.59835 -6.67583,4.18411 a 10.12669,10.12669 0 0 0 -4.66487,9.88274 l 6.68609,-1.69471 1.49718,-3.75414 1.78314,2.92271 7.23374,12.64735 7.32375,-3.98283 4.66657,-7.31288 z" />
  <rect
     style="stroke-width:0.875"
     id="rect142"
     fill="#ffffff"
     transform="rotate(-60.15005)"
     height="177.55603"
     width="1.7496325"
     y="251.86572"
     x="14.65808" />
  <rect
     style="stroke-width:0.875"
     id="rect144"
     fill="#ffffff"
     transform="rotate(-29.84553)"
     height="1.7496325"
     width="177.55603"
     y="285.38409"
     x="96.519753" />
  <rect
     style="stroke-width:0.875"
     id="rect146"
     fill="#ffffff"
     transform="rotate(-45)"
     height="70.533897"
     width="1.7498162"
     y="521.80688"
     x="303.30005" />
  <rect
     style="stroke-width:0.875"
     id="rect148"
     fill="#ffffff"
     transform="rotate(-45)"
     height="1.7498162"
     width="70.533897"
     y="556.19891"
     x="268.90802" />
</svg>
