<?xml version="1.0" encoding="UTF-8" standalone="no"?>
<svg
   xmlns:dc="http://purl.org/dc/elements/1.1/"
   xmlns:cc="http://creativecommons.org/ns#"
   xmlns:rdf="http://www.w3.org/1999/02/22-rdf-syntax-ns#"
   xmlns:svg="http://www.w3.org/2000/svg"
   xmlns="http://www.w3.org/2000/svg"
   xmlns:sodipodi="http://sodipodi.sourceforge.net/DTD/sodipodi-0.dtd"
   xmlns:inkscape="http://www.inkscape.org/namespaces/inkscape"
   id="a58ef234-55dd-4456-b368-278f056cc5c7"
   data-name="Layer 1"
   width="1028"
   height="340"
   viewBox="0 0 1028 339.99998"
   version="1.1"
   sodipodi:docname="opensource.svg"
   inkscape:version="1.0 (4035a4fb49, 2020-05-01)">
  <metadata
     id="metadata123">
    <rdf:RDF>
      <cc:Work
         rdf:about="">
        <dc:format>image/svg+xml</dc:format>
        <dc:type
           rdf:resource="http://purl.org/dc/dcmitype/StillImage" />
        <dc:title>open source</dc:title>
      </cc:Work>
    </rdf:RDF>
  </metadata>
  <defs
     id="defs121" />
  <sodipodi:namedview
     inkscape:document-rotation="0"
     pagecolor="#ffffff"
     bordercolor="#666666"
     borderopacity="1"
     objecttolerance="10"
     gridtolerance="10"
     guidetolerance="10"
     inkscape:pageopacity="0"
     inkscape:pageshadow="2"
     inkscape:window-width="640"
     inkscape:window-height="480"
     id="namedview119"
     showgrid="false"
     inkscape:zoom="0.75731964"
     inkscape:cx="531.21593"
     inkscape:cy="480.4864"
     inkscape:current-layer="a58ef234-55dd-4456-b368-278f056cc5c7" />
  <title
     id="title2">open source</title>
  <path
     d="m 1028,258.48419 a 13.68982,13.68982 0 0 1 -0.1699,2.12 c -7.1402,43.76 -234.4601,78.88 -513.8301,78.88 -279.37,0 -506.69,-35.12 -513.83,-78.88 a 13.67509,13.67509 0 0 1 -0.17,-2.12 c 0,-0.2 0,-0.41 0.02,-0.61 0,-0.11005 0.01,-0.21 0.01,-0.32 a 0.48944,0.48944 0 0 0 0.01,-0.12 c 0.04,-0.45 0.1,-0.88 0.18,-1.32 3.26,-17.89 43.35,-34.33 108.74,-47.5 53.48,-10.77 123.89,-19.36 204.93,-24.76 61.5,-4.1 129.12,-6.37 200.11,-6.37 57.12,0 112.06,1.47 163.38,4.17 h 0.02 q 16.11,0.855 31.74,1.87 c 71.33,4.62 134.63,11.69 185.63,20.54 31.37,5.45 58.1,11.58 79.1899,18.22 h 0.01 c 32.46,10.23 51.6001,21.7 53.8101,33.83 0.08,0.44 0.1399,0.87 0.1799,1.32 a 0.48659,0.48659 0 0 0 0.01,0.12 c 0,0.11 0.01,0.21 0.01,0.32 0.02,0.19997 0.02,0.40999 0.02,0.61 z"
     fill="#3f3d56"
     id="path6" />
  <ellipse
     cx="501"
     cy="312.48425"
     rx="165"
     ry="24"
     opacity="0.1"
     id="ellipse8" />
  <path
     d="m 973.96,222.28418 c -5.77,1.65 -12.27,3.18 -19.3999,4.58 -29.3601,5.78 -69.42005,9.33 -113.53,9.33 -49.28,0 -93.45,-4.43 -123.38,-11.44 -24.84,-5.81994 -39.88,-13.38995 -39.88,-21.69995 0,-7.30005 11.63995,-14.06 31.37,-19.53 71.33,4.62 134.63,11.69 185.63,20.54 31.3699,5.44993 58.0999,11.57994 79.1899,18.21995 z"
     opacity="0.1"
     id="path10" />
  <path
     d="m 532,211.23419 c 0,15.13 -94.92,27.4 -212,27.4 -117.08,0 -212,-12.27 -212,-27.4 a 4.372,4.372 0 0 1 0.96,-2.62 c 53.48,-10.77 123.89,-19.36 204.93,-24.76 q 3.045,-0.015 6.11,-0.01 c 117.08,-1e-5 212,12.26 212,27.39 z"
     opacity="0.1"
     id="path12" />
  <rect
     x="416.47192"
     y="75.461739"
     width="41.68539"
     height="134.58427"
     fill="#804dde"
     id="rect14" />
  <rect
     x="279.50562"
     y="12.338147"
     width="41.68539"
     height="197.70787"
     fill="#804dde"
     id="rect16" />
  <rect
     x="143.73035"
     y="12.338147"
     width="41.68539"
     height="197.70787"
     fill="#804dde"
     id="rect18" />
  <rect
     x="211.61798"
     y="12.338147"
     width="41.68539"
     height="134.58427"
     fill="#804dde"
     id="rect20" />
  <rect
     x="347.39325"
     y="12.338147"
     width="41.68539"
     height="39.303371"
     fill="#804dde"
     id="rect22" />
  <rect
     x="347.39325"
     y="75.461739"
     width="41.68539"
     height="134.58427"
     fill="#8a8b8c"
     id="rect24" />
  <rect
     x="416.47192"
     y="12.338147"
     width="109.57303"
     height="39.303371"
     fill="#804dde"
     id="rect26" />
  <path
     d="m 815.062,0.51580825 q 42.74823,0 72.77372,29.83923075 a 97.98265,97.98265 0 0 1 21.83181,32.83846 107.34579,107.34579 0 0 1 0.0955,78.409151 93.53335,93.53335 0 0 1 -21.73946,32.294 104.70367,104.70367 0 0 1 -33.84136,22.5609 101.42451,101.42451 0 0 1 -39.11384,7.82277 99.01466,99.01466 0 0 1 -38.66173,-7.73362 104.84511,104.84511 0 0 1 -55.39934,-55.39621 101.7643,101.7643 0 0 1 0.0891,-77.594081 102.30668,102.30668 0 0 1 22.46856,-33.38603 Q 772.6735,0.52217825 815.06196,0.51580825 Z m 0.36932,18.37730075 q -34.93023,0 -58.76787,24.37889 a 87.59486,87.59486 0 0 0 -18.46645,27.38128 80.78885,80.78885 0 0 0 0,63.311251 86.24851,86.24851 0 0 0 45.5771,45.30965 82.68682,82.68682 0 0 0 63.41,-0.0891 87.99456,87.99456 0 0 0 27.74106,-18.37412 q 23.83128,-23.28683 23.82809,-58.4049 a 83.65859,83.65859 0 0 0 -6.18627,-32.020181 81.465,81.465 0 0 0 -18.0016,-26.92917 q -24.57632,-24.56201 -59.13406,-24.5636 z m -1.27673,66.59064 -13.64925,7.09685 a 14.0061,14.0061 0 0 0 -5.36482,-6.36774 12.08742,12.08742 0 0 0 -5.91563,-1.818 q -13.63969,0 -13.64606,18.011151 0,8.18573 3.45449,13.09525 3.45768,4.9143 10.19157,4.91589 8.91644,0 12.55719,-8.73335 l 12.55082,6.36774 a 29.99,29.99 0 0 1 -26.74451,16.01168 q -13.64448,0 -22.01646,-8.3704 -8.36721,-8.36721 -8.36721,-23.28363 0,-14.556661 8.45954,-23.105351 8.45795,-8.5487 21.37969,-8.55187 18.9265,-0.01 27.11064,14.73178 z m 58.76469,0 -13.46459,7.09685 a 13.99175,13.99175 0 0 0 -5.368,-6.36774 12.37253,12.37253 0 0 0 -6.09393,-1.818 q -13.64446,0 -13.64924,18.011151 0,8.18573 3.45767,13.09525 3.45291,4.9143 10.19157,4.91589 8.90688,0 12.54764,-8.73335 l 12.73548,6.36774 a 31.27658,31.27658 0 0 1 -11.27409,11.73575 29.39766,29.39766 0 0 1 -15.46405,4.27593 q -13.83072,0 -22.09923,-8.3704 -8.2908,-8.36721 -8.28444,-23.28363 0,-14.556661 8.46273,-23.105351 8.45319,-8.5487 21.37333,-8.55187 18.92171,-0.01 26.92915,14.73178 z"
     fill="#804dde"
     id="path28" />
  <path
     d="m 753.41688,250.82234 c 0,48.73748 -67.93425,33.66253 -151.11288,33.66253 -83.17863,0 -150.10359,15.075 -150.10359,-33.66253 0,-48.73753 67.925,-59.33747 151.10359,-59.33747 83.17859,0 150.11288,10.59999 150.11288,59.33747 z"
     opacity="0.1"
     id="path30" />
  <path
     d="m 753.41688,238.82234 c 0,48.73748 -67.93425,33.66253 -151.11288,33.66253 -83.17863,0 -150.10359,15.075 -150.10359,-33.66253 0,-48.73753 67.925,-59.33747 151.10359,-59.33747 83.17859,0 150.11288,10.59999 150.11288,59.33747 z"
     fill="#3f3d56"
     id="path32" />
  <path
     d="m 739.54156,151.32878 3.43359,14.16355 a 0.88462,0.88462 0 0 1 -0.0172,0.478 l -15.57547,48.67335 a 0.88465,0.88465 0 0 1 -1.72156,-0.16974 l -2.15469,-18.96122 a 0.88471,0.88471 0 0 1 0.0379,-0.374 l 14.29657,-43.87567 a 0.88465,0.88465 0 0 1 1.70088,0.0657 z"
     fill="#2f2e41"
     id="path34" />
  <polygon
     transform="translate(0,-259.51321)"
     points="738.278,412.038 741.449,424.19 727.711,468.572 724.541,454.835 "
     fill="#f2f2f2"
     id="polygon36" />
  <path
     d="m 669.06392,218.5693 c 0.52836,1.58507 54.949,-0.52835 55.47732,-1.05671 a 11.4687,11.4687 0 0 0 1.16235,-2.11342 c 0.49669,-1.05671 0.95107,-2.11342 0.95107,-2.11342 L 724.54124,196.1776 670.649,194.26495 c 0,0 -1.34734,14.49808 -1.62209,21.13422 a 15.85321,15.85321 0 0 0 0.037,3.17013 z"
     fill="#2f2e41"
     id="path38" />
  <polygon
     transform="translate(0,-259.51321)"
     points="717.673,458.005 718.729,472.799 694.953,472.799 694.953,458.005 "
     opacity="0.1"
     id="polygon40" />
  <polygon
     transform="translate(0,-259.51321)"
     points="673.291,462.76 687.028,462.76 687.17,462.732 686.5,469.1 673.291,469.1 "
     opacity="0.1"
     id="polygon42" />
  <path
     d="m 669.06392,218.5693 c 0.52836,1.58507 54.949,-0.52835 55.47732,-1.05671 a 11.4687,11.4687 0 0 0 1.16235,-2.11342 H 669.0269 a 15.85321,15.85321 0 0 0 0.037,3.17013 z"
     opacity="0.1"
     id="path44" />
  <path
     d="m 585.05541,163.09198 h 14.79395 l 36.45652,-14.26559 c 0,0 25.88942,-10.56711 23.776,9.5104 -2.11342,20.07751 -5.81188,47.02363 -5.81188,47.02363 0,0 -11.62382,-5.28356 -17.96409,-3.69849 -6.34027,1.58507 -2.11342,-32.22968 -2.11342,-32.22968 0,0 -51.77883,24.8327 -56.534,21.66257 -4.75517,-3.17013 -5.81191,-25.36106 -5.81191,-25.36106 z"
     fill="#2f2e41"
     id="path46" />
  <path
     d="m 585.05541,163.09198 h 14.79395 l 36.45652,-14.26559 c 0,0 25.88942,-10.56711 23.776,9.5104 -2.11342,20.07751 -5.81188,47.02363 -5.81188,47.02363 0,0 -11.62382,-5.28356 -17.96409,-3.69849 -6.34027,1.58507 -2.11342,-32.22968 -2.11342,-32.22968 0,0 -51.77883,24.8327 -56.534,21.66257 -4.75517,-3.17013 -5.81191,-25.36106 -5.81191,-25.36106 z"
     opacity="0.1"
     id="path48" />
  <path
     d="m 608.36337,116.76265 17.90376,25.72347 41.74008,34.87146 c 0,0 38.56994,8.982 33.28639,15.32231 -5.28355,6.34031 -37.51323,-6.34027 -37.51323,-6.34027 0,0 -48.08037,-34.87145 -49.66537,-37.51323 -1.585,-2.64178 -19.0208,-27.47448 -19.0208,-27.47448 z"
     fill="#a0616a"
     id="path50" />
  <path
     d="m 608.36337,116.76265 17.90376,25.72347 41.74008,34.87146 c 0,0 38.56994,8.982 33.28639,15.32231 -5.28355,6.34031 -37.51323,-6.34027 -37.51323,-6.34027 0,0 -48.08037,-34.87145 -49.66537,-37.51323 -1.585,-2.64178 -19.0208,-27.47448 -19.0208,-27.47448 z"
     opacity="0.1"
     id="path52" />
  <circle
     cx="605.66125"
     cy="64.817886"
     r="23.77599"
     fill="#a0616a"
     id="circle54" />
  <path
     d="m 604.0762,85.952099 c 0,0 -7.92533,13.73724 -9.51039,21.134221 -1.58506,7.39697 -23.776,-14.793951 -23.776,-14.793951 l -2.90595,-7.66115 c 0,0 20.87,-9.77458 19.285,-17.69991 -1.585,-7.92533 16.90734,19.02079 16.90734,19.02079 z"
     fill="#a0616a"
     id="path56" />
  <path
     d="m 597.73594,95.990859 11.62382,22.719271 c 0,0 -2.64178,11.09546 -6.86862,12.15217 -4.22684,1.05671 -22.19093,-13.73724 -22.19093,-13.73724 z"
     fill="#d0cde1"
     id="path58" />
  <path
     d="m 608.30305,127.16382 21.66257,28.53119 51.77883,38.56994 c 0,0 37.51323,7.92534 29.05955,13.73724 -8.45368,5.8119 -32.758,-5.28355 -32.758,-5.28355 0,0 -52.30718,-28.00284 -63.40265,-39.62666 -11.09547,-11.62382 -31.70132,-31.173 -31.70132,-31.173 z"
     fill="#a0616a"
     id="path60" />
  <path
     d="m 579.2435,171.54567 6.34026,10.03875 37.83932,-11.9045 a 29.75135,29.75135 0 0 1 24.7708,2.98851 c 6.60444,4.1608 10.83129,10.76524 1.32089,20.53981 -19.0208,19.54915 -31.70133,8.982 -31.70133,8.982 0,0 -63.931,30.11625 -74.49811,15.3223 -10.56711,-14.79395 -11.09546,-22.19093 -11.09546,-22.19093 0,0 40.68336,-25.36101 47.02363,-23.77594 z"
     fill="#2f2e41"
     id="path62" />
  <path
     d="m 658.49681,206.41713 c 0,0 16.90737,11.09546 -3.17013,16.379 -20.0775,5.28354 -34.87146,-2.11343 -34.87146,-2.11343 0,0 -17.43573,0 -17.43573,-8.982 0,-8.982 5.81191,-10.03875 5.81191,-10.03875 l 17.96409,2.64178 c 0,0 21.66257,-5.81193 31.70132,2.1134 z"
     fill="#d0cde1"
     id="path64" />
  <path
     d="m 625.16583,58.836899 a 17.728,17.728 0 0 0 4.98235,1.78469 4.548,4.548 0 0 0 4.59533,-1.96886 6.18073,6.18073 0 0 0 0.522,-2.7952 c 0.0637,-2.90132 -0.14619,-6.03778 -1.98475,-8.28309 -1.1701,-1.429 -2.87816,-2.32977 -4.08936,-3.72406 a 17.59821,17.59821 0 0 1 -2.06717,-3.37767 c -2.35552,-4.42406 -5.84318,-8.67589 -10.69025,-9.9513 a 23.18347,23.18347 0 0 0 -6.24,-0.47707 l -12.20625,0.17221 a 21.25081,21.25081 0 0 0 -5.872,0.632 c -3.92885,1.1879 -6.78945,4.49179 -9.40936,7.65139 a 47.85117,47.85117 0 0 0 -5.39639,7.44763 26.133,26.133 0 0 0 -3.09771,12.80437 11.97989,11.97989 0 0 0 0.43881,3.38808 18.80129,18.80129 0 0 0 1.33168,2.925 c 2.28907,4.49613 3.64824,10.1121 1.07032,14.44908 4.47812,-1.82926 8.90892,-4.22774 11.863,-8.05834 1.3215,-1.71364 2.35787,-3.7197 4.119,-4.9772 1.76113,-1.2575 4.63076,-1.36658 5.76072,0.479 a 5.163,5.163 0 0 1 0.58258,2.41835 11.084,11.084 0 0 0 0.66762,4.08133 3.05833,3.05833 0 0 0 3.32224,1.8956 c 2.30039,-0.648 2.0801,-4.17861 3.85194,-5.78243 1.3456,-1.218 3.42157,-0.98516 5.15028,-1.53807 a 7.64334,7.64334 0 0 0 4.38653,-4.32052 c 0.65453,-1.46807 0.64508,-5.3098 1.88365,-6.10481 1.55322,-0.99698 5.08545,0.58807 6.52519,1.22989 z"
     fill="#2f2e41"
     id="path66" />
  <path
     d="m 565.99646,82.124969 a 6.27057,6.27057 0 0 1 3.26389,0.008 c 3.39162,0.91054 10.99473,3.321 12.62493,6.989 2.11342,4.7552 9.51039,12.152171 9.51039,12.152171 0,0 10.03876,10.03874 7.92534,16.90736 -2.11342,6.86862 -10.03876,14.794 -10.03876,14.794 0,0 2.11342,32.758 -8.45368,41.21172 -10.5671,8.45372 -14.794,2.64178 -14.794,10.56711 0,7.92533 -32.758,32.758 -39.0983,17.43573 0,0 3.17014,-28.5312 2.11343,-38.56995 -1.04144,-9.89406 0.48322,-71.623841 36.94676,-81.495451 z"
     fill="#d0cde1"
     id="path68" />
  <path
     d="m 582.942,95.462499 c 0,0 32.22968,23.775991 26.41777,33.814741 0,0 -19.54915,9.5104 -23.776,8.982 -4.22685,-0.5284 -20.60586,-19.02079 -24.8327,-20.60586 -4.22684,-1.58507 -6.34027,-30.116211 22.19093,-22.190881 z"
     fill="#d0cde1"
     id="path70" />
  <path
     d="m 493.81065,116.76823 c -5.01266,1.69284 -9.5539,5.65228 -10.58039,10.84253 -0.47582,2.40592 -0.18409,4.907 -0.58451,7.32661 -0.92865,5.61161 -5.33358,9.89722 -9.39638,13.878 -4.0628,3.98078 -8.2584,8.60617 -8.55492,14.28636 -0.3247,6.22 4.1862,12.047 3.40563,18.22633 -0.90687,7.17909 -8.48947,11.831 -10.36389,18.82016 -1.25164,4.667 0.28211,9.6942 2.8055,13.81484 4.80858,7.85231 13.0279,13.18323 21.78085,16.041 8.75295,2.85777 18.07506,3.45905 27.28222,3.55552 11.21079,0.11746 23.38277,-0.845 31.806,-8.244 a 25.48043,25.48043 0 0 0 8.459,-16.5882 c 0.8002,-8.57064 -2.77695,-17.42641 -0.30951,-25.67311 1.55287,-5.19 5.44709,-9.93 4.86592,-15.316 -0.56823,-5.26625 -5.16773,-8.99907 -8.32312,-13.25346 -2.9461,-3.97222 -4.7338,-8.66319 -6.48587,-13.28794 l -5.99481,-15.82383 c -1.17848,-3.1107 -2.47257,-6.38232 -5.09885,-8.424 -4.91665,-3.8221 -12.82242,-3.07115 -18.57152,-2.28285 -5.33345,0.7313 -11.01234,0.3699 -16.14135,2.10204 z"
     fill="#2f2e41"
     id="path72" />
  <path
     d="m 495.68806,162.86296 c 0,0 2.65748,8.63681 -17.27362,18.60236 -19.9311,9.96555 1.99311,20.59548 1.99311,20.59548 l 23.25295,5.315 c 0,0 23.91732,-3.32185 26.5748,-7.30808 2.65748,-3.98623 7.30808,-17.27362 5.97934,-19.26673 a 31.0614,31.0614 0 0 0 -3.32186,-3.98622 c 0,0 -15.94488,-2.65748 -15.28051,-9.96555 0.66437,-7.30807 -21.92421,-3.98626 -21.92421,-3.98626 z"
     fill="#ffb9b9"
     id="path74" />
  <path
     d="m 495.68806,162.86296 c 0,0 2.65748,8.63681 -17.27362,18.60236 -19.9311,9.96555 1.99311,20.59548 1.99311,20.59548 l 23.25295,5.315 c 0,0 23.91732,-3.32185 26.5748,-7.30808 2.65748,-3.98623 7.30808,-17.27362 5.97934,-19.26673 a 31.0614,31.0614 0 0 0 -3.32186,-3.98622 c 0,0 -15.94488,-2.65748 -15.28051,-9.96555 0.66437,-7.30807 -21.92421,-3.98626 -21.92421,-3.98626 z"
     opacity="0.1"
     id="path76" />
  <circle
     cx="508.64328"
     cy="155.22273"
     r="21.25984"
     fill="#ffb9b9"
     id="circle78" />
  <path
     d="m 506.318,200.06768 c 0,0 -25.60367,-1.87245 -26.08923,-19.53858 0,0 -9.12238,-1.05689 -11.77986,1.60059 -2.65748,2.65748 -11.2943,4.65059 -11.2943,11.29429 0,6.6437 14.61615,26.57481 14.61615,26.57481 0,0 7.97244,26.5748 4.65059,31.22539 -3.32185,4.65059 -3.98622,16.60925 -3.98622,16.60925 0,0 33.2185,-2.65748 38.53346,0 5.31496,2.65748 26.57481,2.65748 27.90355,0 1.32874,-2.65748 -1.32874,-35.876 -1.32874,-35.876 0,0 5.97933,-7.97244 4.65059,-17.27362 l 15.94486,-18.60232 c 0,0 -5.97933,-17.938 -15.28051,-17.938 0,0 -12.623,-3.32185 -12.95522,-1.66092 -0.33222,1.66093 6.31152,20.26326 -23.58512,23.58511 z"
     fill="#ff6584"
     id="path80" />
  <path
     d="m 446.52467,258.53225 c 0,0 5.97933,9.30118 21.25985,11.29429 15.28052,1.99311 17.938,-3.32185 16.60925,-4.65059 -1.32875,-1.32874 -17.27362,-7.30807 -17.27362,-7.30807 l -9.30119,-7.30807 z"
     fill="#ffb9b9"
     id="path82" />
  <path
     d="m 555.48137,250.55981 -17.27362,9.96555 c 0,0 -22.58859,-1.32874 -13.95178,5.315 8.63681,6.64374 24.5817,3.98622 24.5817,3.98622 l 15.28051,-7.30807 z"
     fill="#ffb9b9"
     id="path84" />
  <path
     d="m 469.11326,267.83343 c 0,0 -15.94489,39.19784 3.32185,45.17717 19.26674,5.97933 72.41634,4.65059 84.375,-3.32185 11.95866,-7.97244 15.28051,-18.60236 13.2874,-21.92421 -1.99311,-3.32185 -15.28051,-12.623 -24.58169,-13.2874 -9.30118,-0.6644 -76.40256,-6.64371 -76.40256,-6.64371 z"
     fill="#2f2e41"
     id="path86" />
  <path
     d="m 469.11326,267.83343 c 0,0 -15.94489,39.19784 3.32185,45.17717 19.26674,5.97933 72.41634,4.65059 84.375,-3.32185 11.95866,-7.97244 15.28051,-18.60236 13.2874,-21.92421 -1.99311,-3.32185 -15.28051,-12.623 -24.58169,-13.2874 -9.30118,-0.6644 -76.40256,-6.64371 -76.40256,-6.64371 z"
     opacity="0.05"
     id="path88" />
  <path
     d="m 544.37766,270.26867 c 0,0 56.28087,-20.37323 55.6165,4.20847 -0.66437,24.5817 -35.876,31.22539 -35.876,31.22539 l -10.62992,1.32874 -58.46457,1.99311 c 0,0 1.99311,-10.62992 -2.65748,-11.95866 0,0 15.28051,-3.98622 15.94488,-4.65059 0.66437,-0.66437 38.53347,-13.95177 41.19095,-14.61614 2.65748,-0.66437 10.62992,-5.97934 16.60925,-5.315 0,0 6.6437,-5.315 13.95177,-3.98622 l -20.59547,1.32874 z"
     fill="#2f2e41"
     id="path90" />
  <path
     d="m 544.37766,270.26867 c 0,0 56.28087,-20.37323 55.6165,4.20847 -0.66437,24.5817 -35.876,31.22539 -35.876,31.22539 l -10.62992,1.32874 -58.46457,1.99311 c 0,0 1.99311,-10.62992 -2.65748,-11.95866 0,0 15.28051,-3.98622 15.94488,-4.65059 0.66437,-0.66437 38.53347,-13.95177 41.19095,-14.61614 2.65748,-0.66437 10.62992,-5.97934 16.60925,-5.315 0,0 6.6437,-5.315 13.95177,-3.98622 l -20.59547,1.32874 z"
     opacity="0.1"
     id="path92" />
  <polygon
     transform="translate(0,-259.51321)"
     points="576.741,523.36 554.035,527.347 544.187,530.004 534.434,533.081 541.53,549.271 584.714,533.99 588.036,525.354 "
     fill="#2f2e41"
     id="polygon94" />
  <polygon
     transform="translate(0,-259.51321)"
     points="576.741,523.36 554.035,527.347 544.187,530.004 534.434,533.081 541.53,549.271 584.714,533.99 588.036,525.354 "
     opacity="0.1"
     id="polygon96" />
  <path
     d="m 442.53845,293.07949 c 0,0 12.623,15.94488 27.23918,19.9311 14.61618,3.98622 22.58858,-1.32874 22.58858,-1.32874 l -4.65059,-18.60236 -1.99311,-11.95866 -8.63681,-5.97934 -17.27363,-7.97245 -20.59547,-6.6437 c 0,0 -8.63681,-1.32874 -8.63681,0 0,1.32874 7.97244,21.25985 7.97244,21.25985 z"
     fill="#2f2e41"
     id="path98" />
  <path
     d="m 457.819,301.71631 c 0,0 2.65748,19.26673 5.97934,20.59547 3.32186,1.32874 13.2874,-1.32874 15.94488,-2.65748 2.65748,-1.32874 11.69054,-7.45919 11.69054,-7.45919 0,0 -31.62169,-11.80754 -33.61476,-10.4788 z"
     fill="#f2f2f2"
     id="path100" />
  <polygon
     transform="translate(0,-259.51321)"
     points="518.277,563.223 530.9,565.216 529.571,580.496 511.964,576.22 "
     fill="#ffb9b9"
     id="polygon102" />
  <path
     d="m 526.18567,307.96204 c 0,0 -5.91592,7.04167 0.0634,11.02789 l 3.98622,3.32185 c 0,0 13.28741,2.65748 14.61615,3.98622 1.32874,1.32874 6.6437,-1.99311 6.6437,-1.99311 0,0 0.66437,-19.9311 0,-21.25984 -0.66437,-1.32874 -8.63681,-2.65748 -9.30118,-1.32874 -0.66437,1.32874 -8.63682,3.32185 -13.28741,1.99311 z"
     fill="#f2f2f2"
     id="path104" />
  <path
     d="m 473.09948,272.48402 c 0,0 -46.50591,-27.23917 -53.814,-17.27362 -7.30809,9.96555 -15.28051,23.91733 5.97933,34.54725 21.25984,10.62992 87.69685,32.55413 87.69685,32.55413 0,0 9.96555,-15.28051 9.96555,-19.26673 0,0 -35.21161,-15.94488 -41.19094,-17.27362 -5.97933,-1.32874 -29.89666,-16.60926 -33.21851,-17.938 -3.32185,-1.32874 -7.97244,-5.315 -7.97244,-5.315 z"
     fill="#2f2e41"
     id="path106" />
  <path
     d="m 459.81207,190.10213 -2.65748,1.99311 c 0,0 -5.97933,15.28052 -6.6437,23.91733 -0.66437,8.63681 -8.63681,35.21161 -7.97244,38.53346 0.66437,3.32185 1.32874,5.97933 5.315,9.30118 0,0 5.315,-11.95866 14.61615,-9.96555 l 11.29429,-41.19094 z"
     fill="#ff6584"
     id="path108" />
  <path
     d="m 552.82389,190.10213 5.315,5.97933 c 0,0 3.32185,7.97245 3.32185,9.96556 0,1.99311 6.6437,31.22539 7.30807,32.55413 0.66437,1.32874 3.32185,17.938 0,21.92421 -3.32185,3.98621 -9.30118,6.6437 -9.30118,6.6437 0,0 3.98622,-13.95177 -8.63681,-14.61614 l 1.32874,-5.315 -11.95866,-39.8622 z"
     fill="#ff6584"
     id="path110" />
  <path
     d="m 461.14082,235.84311 v 34.9949 a 8.41342,8.41342 0 0 0 8.2888,8.41251 l 73.18511,1.08423 a 8.41344,8.41344 0 0 0 8.53185,-8.08916 l 1.34611,-34.999 a 8.41344,8.41344 0 0 0 -8.28529,-8.73591 l -74.53123,-1.08016 a 8.41342,8.41342 0 0 0 -8.53535,8.41259 z"
     fill="#3f3d56"
     id="path112" />
  <ellipse
     cx="509.89011"
     cy="142.2188"
     rx="22.884121"
     ry="12.32222"
     fill="#2f2e41"
     id="ellipse114" />
  <circle
     cx="505.98581"
     cy="254.21385"
     r="5.31496"
     fill="#f2f2f2"
     id="circle116" />
</svg>
