<svg xmlns="http://www.w3.org/2000/svg" xmlns:svg="http://www.w3.org/2000/svg" id="b66c9c51-8109-402d-a3f9-100a5bb3d153" width="890.302" height="489.3" data-name="Layer 1" version="1.1" viewBox="0 0 890.302 489.3"><metadata id="metadata155"/><title id="title2">work_together</title><path style="stroke-width:.866052" id="path6" fill="#3f3d56" d="m 890.30176,419.14953 a 11.856099,11.856099 0 0 1 -0.14714,1.83603 c -6.18379,37.89845 -203.05471,68.31421 -445.00374,68.31421 -241.94903,0 -438.8200341,-30.41576 -445.00364755,-68.31421 A 11.843343,11.843343 0 0 1 3.187503e-6,419.14953 c 0,-0.17321 0,-0.35508 0.017323402497,-0.5283 0,-0.0953 0.0086979,-0.18187 0.0086979,-0.27713 a 0.42388063,0.42388063 0 0 0 0.0086979,-0.10393 C 0.0693692,417.85045 0.12132905,417.47804 0.19061232,417.09698 3.0139431,401.60331 37.733979,387.36541 94.36513,375.9595 c 46.31648,-9.32738 107.29522,-16.76677 177.4801,-21.44346 53.26222,-3.55081 111.82467,-5.51675 173.30572,-5.51675 49.46891,0 97.04982,1.2731 141.49562,3.61144 h 0.0173 q 13.95211,0.74047 27.48852,1.61952 c 61.77549,4.00116 116.59661,10.12415 160.76528,17.78872 27.16806,4.71998 50.31764,10.02888 68.5826,15.77946 h 0.008 c 28.11206,8.85972 44.68839,18.79334 46.60236,29.29855 0.0693,0.38106 0.12116,0.75347 0.15581,1.14319 a 0.42141238,0.42141238 0 0 0 0.008,0.10393 c 0,0.0953 0.008,0.18187 0.008,0.27713 0.0173,0.1732 0.0173,0.35508 0.0173,0.5283 z"/><ellipse style="stroke-width:.359834" id="ellipse8-2" cx="720.064" cy="447.33" opacity=".1" rx="59.373" ry="8.636"/><ellipse style="stroke-width:.365265" id="ellipse8" cx="323.63" cy="453.809" opacity=".1" rx="60.269" ry="8.766"/><rect style="stroke-width:.875" id="rect4" width="615.629" height="394.276" x="137.62" y="32.694" fill="#e6e6e6"/><rect style="stroke-width:.875" id="rect6" width="222.25" height="228.375" x="192.057" y="85.639" fill="#fff"/><rect style="stroke-width:.875" id="rect8" width="222.25" height="277.375" x="497.432" y="90.068" fill="#fff"/><rect style="stroke-width:.875" id="rect16" width="615.629" height="26.154" x="137.357" y="32.345" fill="#804dde"/><circle style="stroke-width:.875" id="circle18" cx="156.792" cy="45.717" r="4.847" fill="#e6e6e6"/><circle style="stroke-width:.875" id="circle20" cx="175.192" cy="45.717" r="4.847" fill="#e6e6e6"/><circle style="stroke-width:.875" id="circle22" cx="193.592" cy="45.717" r="4.847" fill="#e6e6e6"/><path style="stroke-width:.875" id="path24" fill="#3f3d56" d="m 670.68234,164.46905 h -1.34631 V 127.58731 A 21.34615,21.34615 0 0 0 647.98982,106.24113 H 569.85091 A 21.34615,21.34615 0 0 0 548.5047,127.58731 V 329.9234 a 21.34615,21.34615 0 0 0 21.34621,21.34618 h 78.13891 A 21.34615,21.34615 0 0 0 669.33603,329.9234 V 190.72209 h 1.34631 z"/><path style="stroke-width:.875" id="path26" fill="#fff" d="m 647.97615,111.79467 h -10.19972 a 7.5735625,7.5735625 0 0 1 -7.01208,10.4339 h -44.76482 a 7.57358,7.57358 0 0 1 -7.01206,-10.4339 h -9.52658 a 15.941065,15.941065 0 0 0 -15.94109,15.94105 v 202.03925 a 15.941065,15.941065 0 0 0 15.94109,15.94106 h 78.51526 a 15.941074,15.941074 0 0 0 15.94109,-15.94106 V 127.73572 a 15.941074,15.941074 0 0 0 -15.94109,-15.94105 z"/><rect style="stroke-width:.875" id="rect28" width="154.476" height="7.046" x="226.098" y="229.899" fill="#e6e6e6"/><rect style="stroke-width:.875" id="rect30" width="154.476" height="7.046" x="226.098" y="252.649" fill="#804dde"/><rect style="stroke-width:.875" id="rect32" width="154.476" height="7.046" x="226.098" y="275.399" fill="#e6e6e6"/><rect style="stroke-width:.875" id="rect34" width="90.181" height="7.046" x="564.503" y="245.273" fill="#e6e6e6"/><rect style="stroke-width:.875" id="rect36" width="90.181" height="7.046" x="564.503" y="267.148" fill="#e6e6e6"/><rect style="stroke-width:.875" id="rect38" width="90.181" height="7.046" x="564.503" y="289.023" fill="#e6e6e6"/><rect style="stroke-width:.875" id="rect40" width="15.03" height="15.03" x="383.407" y="-664.113" fill="#3f3d56" transform="rotate(90)"/><rect style="stroke-width:.875" id="rect42" width="15.03" height="15.03" x="383.407" y="-639.898" fill="#804dde" transform="rotate(90)"/><rect style="stroke-width:.875" id="rect44" width="15.03" height="15.03" x="383.407" y="-615.682" fill="#3f3d56" transform="rotate(90)"/><rect style="stroke-width:.875" id="rect46" width="15.03" height="15.03" x="383.407" y="-591.467" fill="#3f3d56" transform="rotate(90)"/><rect style="stroke-width:.875" id="rect48" width="15.03" height="15.03" x="383.407" y="-567.252" fill="#3f3d56" transform="rotate(90)"/><rect style="stroke-width:.875" id="rect50" width="50.1" height="50.1" x="583.668" y="153.962" fill="#804dde"/><path style="stroke-width:.875" id="path52" fill="#a0616a" d="m 283.42333,273.48898 -0.64849,1.29699 -1.94548,-9.72738 c 0,0 -2.59397,-10.37588 2.59397,-10.37588 5.18795,0 3.89095,10.37588 3.89095,10.37588 v 7.13342 z"/><path style="stroke-width:.875" id="path54" fill="#a0616a" d="m 368.50932,272.16094 0.64849,1.29699 1.94549,-9.72738 c 0,0 2.59397,-10.37588 -2.59398,-10.37588 -5.18794,0 -3.89096,10.37588 -3.89096,10.37588 v 7.13343 z"/><polygon id="polygon56" fill="#2f2e41" points="377.768 467.145 388.144 462.699 386.662 422.677 397.038 390.808 399.261 428.606 394.815 467.886 408.155 469.369 417.79 388.585 417.049 361.163 382.215 358.94 373.322 413.784" transform="matrix(0.875,0,0,0.875,-22.481293,32.345205)"/><path style="stroke-width:.875" id="path58" fill="#2f2e41" d="m 311.95701,435.26096 -4.53944,7.13342 v 15.93923 a 1.932875,1.932875 0 0 0 1.6243,1.90789 c 2.22495,0.36506 6.09908,0.62444 7.4546,-1.63477 1.94547,-3.24246 0.64849,-10.37589 0.64849,-10.37589 0,0 2.59397,-5.18794 1.29698,-9.07889 -1.29698,-3.89096 -2.59397,-4.53945 -2.59397,-4.53945 z"/><path style="stroke-width:.875" id="path60" fill="#2f2e41" d="m 331.41181,441.74589 1.29698,1.94548 c 0,0 1.94548,1.94548 0.64849,3.24247 a 25.344944,25.344944 0 0 0 -2.59397,3.24246 c 0,0 -7.13342,1.94547 -7.13342,-0.6485 v -8.43041 z"/><circle style="stroke-width:.875" id="circle62" cx="329.075" cy="285.041" r="8.596" fill="#a0616a"/><polygon id="polygon64" fill="#a0616a" points="407.784 306.69 407.043 292.608 395.185 291.867 394.444 305.949" transform="matrix(0.875,0,0,0.875,-22.481293,32.345205)"/><path style="stroke-width:.875" id="path66" fill="#575a89" d="m 335.95125,301.02293 -1.84086,-4.49712 c 0,0 -8.53503,-3.2848 -11.12899,-0.0423 l -1.29699,3.89096 -10.37589,-2.59398 -5.83643,12.96987 5.18795,36.96409 c 0,0 13.61834,17.50931 31.77615,0.64849 l 5.18794,-35.01861 -3.89091,-13.61835 z"/><polygon id="polygon68" fill="#575a89" points="433.354 296.684 442.4 269.907 449.4 272.907 441.506 304.837 420.013 324.847 417.049 308.543 418.531 305.578" transform="matrix(0.875,0,0,0.875,-22.481293,32.345205)"/><polygon id="polygon70" fill="#575a89" points="365.91 293.72 354.793 271.486 345.9 274.45 355.534 301.872 379.251 321.142 382.956 304.837 381.474 303.355" transform="matrix(0.875,0,0,0.875,-22.481293,32.345205)"/><path style="stroke-width:.875" id="path72" fill="#2f2e41" d="m 335.45477,271.87677 1.4055,-0.70276 -2.10825,-0.70274 v -0.70279 c 0,0 -10.54125,-4.2165 -11.94675,2.811 a 14.125379,14.125379 0 0 0 0,16.86601 v 2.10824 l 11.24401,1.40551 1.40549,-4.2165 c 0,0 7.02751,-12.64947 0,-16.86597 z"/><rect style="stroke-width:.875" id="rect106" width="154" height="88.375" x="226.182" y="111.889" fill="#e6e6e6"/><path style="stroke-width:.875" id="path108" fill="#ffb8b8" d="m 684.6956,287.17456 0.71355,-4.60239 c 0,0 4.15897,-9.45452 0.87155,-9.9642 -3.28742,-0.50968 -6.02948,8.49123 -6.02948,8.49123 l 1.20283,9.61252 z"/><polygon id="polygon110" fill="#575a89" points="809.187 289.847 799.302 289.084 799.785 320.707 828.962 336.004 846.67 321.051 813.089 314.306" transform="matrix(0.875,0,0,0.875,-22.481293,32.345205)"/><polygon id="polygon112" points="809.187 289.847 799.302 289.084 799.785 320.707 828.962 336.004 846.67 321.051 813.089 314.306" opacity=".2" transform="matrix(0.875,0,0,0.875,-22.481293,32.345205)"/><rect style="stroke-width:.875" id="rect114" width="90.181" height="7.046" x="-728.599" y="-281.514" fill="#804dde" transform="scale(-1)"/><path style="stroke-width:.875" id="path116" fill="#ffb8b8" d="m 678.95476,285.59674 0.006,-4.65737 c 0,0 2.67389,-9.97675 -0.6528,-9.98091 -3.32669,-0.004 -4.66907,9.30889 -4.66907,9.30889 l 2.64965,9.31808 z"/><path style="stroke-width:.875" id="path118" fill="#2f2e41" d="m 717.20273,298.93564 4.03153,-0.98272 a 10.378979,10.378979 0 0 0 10.18642,-12.43452 v 0 a 13.56614,13.56614 0 0 0 -13.54909,-13.58318 v 0 a 13.566149,13.566149 0 0 0 -13.58325,13.54909 v 0 a 10.780569,10.780569 0 0 0 12.91439,13.45133 z"/><polygon id="polygon120" fill="#2f2e41" points="828.797 462.833 840.203 462.847 838.732 423.305 832.709 375.393 818.254 381.458 822.005 422.524" transform="matrix(0.875,0,0,0.875,-22.481293,32.345205)"/><path style="stroke-width:.875" id="path122" fill="#2f2e41" d="m 704.0496,435.32967 -6.6584,3.98368 c 0,0 -10.64709,1.3173 -8.65525,4.6465 1.99184,3.3292 25.28119,1.36244 25.28286,0.0318 0.002,-1.33068 -0.6545,-8.65025 -1.98514,-8.6519 z"/><path style="stroke-width:.875" id="path124" fill="#2f2e41" d="m 722.95068,363.0168 c 0,0 -0.18719,5.13708 -4.85459,13.11529 l 0.63442,24.61836 23.91375,30.63566 -8.65859,7.30786 -29.23311,-33.3037 -7.26863,-39.9295 9.32644,-9.30305 z"/><path style="stroke-width:.875" id="path126" fill="#2f2e41" d="m 740.64823,431.38361 c 0,0 7.9824,1.34071 6.64754,4.66573 -1.33485,3.32501 -4.68077,18.62363 -13.32766,16.61674 0,0 -3.99203,-0.005 -2.65802,-2.66469 a 48.12885,48.12885 0 0 1 2.66721,-4.65402 l 0.0109,-8.64938 z"/><circle style="stroke-width:.875" id="circle128" cx="712.882" cy="289.631" r="9.98" fill="#ffb8b8"/><polygon id="polygon130" fill="#ffb8b8" points="833.546 314.563 835.083 301.639 845.728 301.652 845.712 314.578" transform="matrix(0.875,0,0,0.875,-22.481293,32.345205)"/><path style="stroke-width:.875" id="path132" fill="#575a89" d="m 704.21507,303.59264 3.2257,-0.7924 10.08107,0.80911 c 0,0 5.31602,5.3294 4.64902,6.65923 -0.66701,1.32984 -4.03463,33.92725 -4.03463,33.92725 l 5.9588,23.29437 -21.2925,1.30393 -10.64374,-1.34404 2.04866,-41.91382 c 0,0 -4.64316,-11.31661 1.34906,-14.63578 a 26.210004,26.210004 0 0 0 8.65856,-7.30785 z"/><polygon id="polygon134" fill="#575a89" points="802.404 287.911 792.518 288.658 797.801 319.841 828.964 330.526 844.193 313.056 809.978 311.492" transform="matrix(0.875,0,0,0.875,-22.481293,32.345205)"/><circle style="stroke-width:.875" id="circle136" cx="732.147" cy="275.84" r="6.439" fill="#2f2e41"/><path style="stroke-width:.875" id="path138" fill="#2f2e41" d="m 726.20594,272.37823 a 6.43594,6.43594 0 0 1 7.70612,-6.30432 6.435975,6.435975 0 1 0 -4.01422,12.12957 6.4336738,6.4336738 0 0 1 -3.6919,-5.82525 z"/><path style="stroke-width:.875" id="path140" fill="#2f2e41" d="m 720.68201,276.02998 -8.68069,-1.59835 -6.67583,4.18411 a 10.12669,10.12669 0 0 0 -4.66487,9.88274 l 6.68609,-1.69471 1.49718,-3.75414 1.78314,2.92271 7.23374,12.64735 7.32375,-3.98283 4.66657,-7.31288 z"/><rect style="stroke-width:.875" id="rect142" width="1.75" height="177.556" x="14.658" y="251.866" fill="#fff" transform="rotate(-60.15005)"/><rect style="stroke-width:.875" id="rect144" width="177.556" height="1.75" x="96.52" y="285.384" fill="#fff" transform="rotate(-29.84553)"/><rect style="stroke-width:.875" id="rect146" width="1.75" height="70.534" x="303.3" y="521.807" fill="#fff" transform="rotate(-45)"/><rect style="stroke-width:.875" id="rect148" width="70.534" height="1.75" x="268.908" y="556.199" fill="#fff" transform="rotate(-45)"/></svg>